# xmcd
#
# Track frame offsets: 
#        150
#        11031
#        28578
#        47085
#        62375
#        81600
#        95396
#        114510
#        130641
#        150288
#        170080
#        181878
#
# Disc length: 2751 seconds
#
# Revision: 0
# Processed by: cddbd v1.5.2PL0 Copyright (c) Steve Scherf et al.
# Submitted via: ExactAudioCopy v0.99pb3
#
DISCID=8f0abd0c
DTITLE=Gary Primich - Just A Little Bit More (Disk 1)
DYEAR=2012
DGENRE=Blues
TTITLE0=Satellite Rock
TTITLE1=Sweet Fine Angel
TTITLE2=Caress Me Baby
TTITLE3=Boogie Woogie Baby
TTITLE4=Bad Dog
TTITLE5=Midnight Ramblin' Man
TTITLE6=Money Habit
TTITLE7=September Song
TTITLE8=House Rockin' Party
TTITLE9=Hoo Doo Ball
TTITLE10=Caravan
TTITLE11=School Of Hard Knocks
EXTD=
EXTT0=
EXTT1=
EXTT2=
EXTT3=
EXTT4=
EXTT5=
EXTT6=
EXTT7=
EXTT8=
EXTT9=
EXTT10=
EXTT11=
PLAYORDER=
